<?xml version="1.0" encoding="utf-8"?>
<!-- Generator: Adobe Illustrator 23.0.2, SVG Export Plug-In . SVG Version: 6.00 Build 0)  -->
<svg version="1.1" id="Layer_1" xmlns="http://www.w3.org/2000/svg" xmlns:xlink="http://www.w3.org/1999/xlink" x="0px" y="0px"
	 viewBox="0 0 612 792" style="enable-background:new 0 0 612 792;" xml:space="preserve">
<style type="text/css">
	.st0{fill:#FFFFFF;stroke:#000000;stroke-miterlimit:10;}
</style>
<path class="st0" d="M182.76,536.34c0,0,4.4-67.03,0-70.33S42.1,383.59,108.03,275.9s146.15-15.38,146.15-15.38l-62.64,5.49
	c0,0-97.85,13.34-19.43,107.69c61.19,73.63,56.79,91.21,56.79,91.21l-1.1,71.43H182.76z"/>
<path class="st0" d="M416.99,536.34c0,0-4.4-67.03,0-70.33s140.66-82.42,74.73-190.11s-146.15-15.38-146.15-15.38l62.64,5.49
	c0,0,97.85,13.34,19.43,107.69c-61.19,73.63-56.79,91.21-56.79,91.21l1.1,71.43H416.99z"/>
</svg>
